<?xml version="1.0" standalone="no"?>
<!DOCTYPE svg PUBLIC "-//W3C//DTD SVG 20010904//EN"
 "http://www.w3.org/TR/2001/REC-SVG-20010904/DTD/svg10.dtd">
<svg version="1.0" xmlns="http://www.w3.org/2000/svg"
 width="207.000000pt" height="213.000000pt" viewBox="0 0 207.000000 213.000000"
 preserveAspectRatio="xMidYMid meet">

<g transform="translate(0.000000,213.000000) scale(0.100000,-0.100000)"
fill="#000000" stroke="none">
<path d="M319 2062 c-113 -30 -217 -122 -261 -230 l-23 -57 -3 -669 c-3 -659
-2 -670 19 -741 12 -43 36 -92 58 -121 42 -55 157 -138 216 -154 28 -8 243
-10 720 -8 l680 3 72 39 c89 47 134 96 182 195 l36 76 3 660 c2 457 -1 676 -9
713 -15 76 -98 194 -169 243 -99 68 -107 69 -822 68 -567 0 -640 -2 -699 -17z
m828 -186 c106 -32 154 -54 231 -108 199 -141 315 -340 329 -564 9 -152 -26
-304 -98 -414 -21 -33 -39 -64 -39 -67 0 -4 49 -55 109 -114 123 -121 135
-144 106 -217 -28 -68 -107 -102 -168 -71 -12 6 -70 58 -128 116 l-106 104
-59 -35 c-186 -111 -443 -124 -654 -32 -11 5 -50 -27 -132 -109 -113 -113
-116 -115 -161 -115 -25 0 -57 5 -70 11 -31 14 -57 69 -57 121 0 40 5 47 152
195 84 85 171 169 193 187 l41 34 49 -24 c135 -63 317 -72 430 -20 l59 27
-241 239 c-132 132 -245 240 -251 240 -6 0 -45 -34 -86 -76 -41 -41 -82 -74
-90 -72 -29 6 -226 200 -226 222 0 15 66 88 203 224 l203 202 158 0 c173 0
210 -9 222 -56 6 -22 -7 -39 -100 -134 l-107 -110 25 -32 c13 -18 122 -129
242 -246 176 -173 219 -211 229 -200 7 7 24 46 39 86 21 59 26 91 26 165 0
115 -18 185 -76 303 -48 96 -136 198 -269 312 -53 45 -57 51 -35 51 14 1 62
-10 107 -23z"/>
</g>
</svg>
